<svg enable-background="new 0 0 128 128" viewBox="0 0 128 128" xmlns="http://www.w3.org/2000/svg" xmlns:xlink="http://www.w3.org/1999/xlink"><linearGradient id="a" gradientUnits="userSpaceOnUse" x1="64.05" x2="64.05" y1="28" y2="99"><stop offset="0" stop-color="#ff7043"/><stop offset=".6132" stop-color="#f15a2b"/><stop offset="1" stop-color="#e64a19"/></linearGradient><linearGradient id="b"><stop offset=".0038323" stop-color="#ffeb3b"/><stop offset=".8197" stop-color="#fcc830"/><stop offset="1" stop-color="#fbc02d"/></linearGradient><linearGradient id="c" gradientTransform="matrix(1 0 0 -1 0 -586.03)" gradientUnits="userSpaceOnUse" x1="6.1" x2="121.9" xlink:href="#b" y1="-668.88" y2="-668.88"/><clipPath id="d"><path d="m115.9 99h-103.7c-3.3 0-6-2.7-6-6v-59c0-3.3 2.7-6 6-6h103.7c3.3 0 6 2.7 6 6v59c0 3.3-2.7 6-6 6z"/></clipPath><clipPath id="e"><path d="m115.9 99h-103.7c-3.3 0-6-2.7-6-6v-59c0-3.3 2.7-6 6-6h103.7c3.3 0 6 2.7 6 6v59c0 3.3-2.7 6-6 6z"/></clipPath><clipPath id="f"><path d="m115.9 99h-103.7c-3.3 0-6-2.7-6-6v-59c0-3.3 2.7-6 6-6h103.7c3.3 0 6 2.7 6 6v59c0 3.3-2.7 6-6 6z"/></clipPath><linearGradient id="g" gradientTransform="matrix(1 0 0 -1 0 127.8898)" gradientUnits="userSpaceOnUse" x1="64.05" x2="64.05" xlink:href="#b" y1="91.8898" y2="99.8898"/><path d="m4 101h119.8v22h-119.8z" fill="#8d6e63"/><path d="m4 101h119.9v7h-119.9z" fill="#424242"/><path d="m122 103v18h-116v-18zm2-2h-120v22h120z" fill="#eee" opacity=".2"/><g fill="#212121"><circle cx="18" cy="99" r="6"/><circle cx="34" cy="99" r="6"/><circle cx="94" cy="99" r="6"/><circle cx="110" cy="99" r="6"/></g><path d="m115.9 99h-103.7c-3.3 0-6-2.7-6-6v-59c0-3.3 2.7-6 6-6h103.7c3.3 0 6 2.7 6 6v59c0 3.3-2.7 6-6 6z" fill="url(#a)"/><path d="m6.1 79.7h115.8v6.3h-115.8z" fill="url(#c)"/><path clip-path="url(#d)" d="m3.8 18.8h120.5v17.2h-120.5z" fill="#689f38"/><g clip-path="url(#e)"><path d="m21 74h-15.4c-2.2 0-4-1.8-4-4v-20.2c0-2.2 1.8-4 4-4h15.4c2.2 0 4 1.8 4 4v20.2c0 2.2-1.8 4-4 4z" fill="#4fc3f7"/></g><g clip-path="url(#f)" opacity=".2"><path d="m21 47.8c1.1 0 2 .9 2 2v20.2c0 1.1-.9 2-2 2h-15.4c-1.1 0-2-.9-2-2v-20.2c0-1.1.9-2 2-2zm0-2h-15.4c-2.2 0-4 1.8-4 4v20.2c0 2.2 1.8 4 4 4h15.4c2.2 0 4-1.8 4-4v-20.2c0-2.3-1.8-4-4-4z" fill="#424242"/></g><path d="m44.2 69.1h-9.2c-2.2 0-4-1.8-4-4v-15.3c0-2.2 1.8-4 4-4h9.1c2.2 0 4 1.8 4 4v15.3c.1 2.2-1.6 4-3.9 4z" fill="#4fc3f7"/><path d="m44.2 47.8c1.1 0 2 .9 2 2v15.3c0 1.1-.9 2-2 2h-9.2c-1.1 0-2-.9-2-2v-15.3c0-1.1.9-2 2-2zm0-2h-9.2c-2.2 0-4 1.8-4 4v15.3c0 2.2 1.8 4 4 4h9.1c2.2 0 4-1.8 4-4v-15.3c.1-2.3-1.6-4-3.9-4z" fill="#424242" opacity=".2"/><path d="m66.4 68.9h-9.1c-2.2 0-4-1.8-4-4v-15.4c0-2.2 1.8-4 4-4h9.1c2.2 0 4 1.8 4 4v15.3c0 2.3-1.8 4.1-4 4.1z" fill="#4fc3f7"/><path d="m66.4 47.5c1.1 0 2 .9 2 2v15.3c0 1.1-.9 2-2 2h-9.1c-1.1 0-2-.9-2-2v-15.3c0-1.1.9-2 2-2zm0-2h-9.1c-2.2 0-4 1.8-4 4v15.3c0 2.2 1.8 4 4 4h9.1c2.2 0 4-1.8 4-4v-15.3c0-2.2-1.8-4-4-4z" fill="#424242" opacity=".2"/><path d="m88.5 69.1h-9.1c-2.2 0-4-1.8-4-4v-15.3c0-2.2 1.8-4 4-4h9.1c2.2 0 4 1.8 4 4v15.3c0 2.2-1.8 4-4 4z" fill="#4fc3f7"/><path d="m88.5 47.8c1.1 0 2 .9 2 2v15.3c0 1.1-.9 2-2 2h-9.1c-1.1 0-2-.9-2-2v-15.3c0-1.1.9-2 2-2zm0-2h-9.1c-2.2 0-4 1.8-4 4v15.3c0 2.2 1.8 4 4 4h9.1c2.2 0 4-1.8 4-4v-15.3c0-2.3-1.8-4-4-4z" fill="#424242" opacity=".2"/><path d="m110.6 69h-9.1c-2.2 0-4-1.8-4-4v-15.3c0-2.2 1.8-4 4-4h9.1c2.2 0 4 1.8 4 4v15.3c0 2.2-1.8 4-4 4z" fill="#4fc3f7"/><path d="m110.6 47.7c1.1 0 2 .9 2 2v15.3c0 1.1-.9 2-2 2h-9.1c-1.1 0-2-.9-2-2v-15.3c0-1.1.9-2 2-2zm0-2h-9.1c-2.2 0-4 1.8-4 4v15.3c0 2.2 1.8 4 4 4h9.1c2.2 0 4-1.8 4-4v-15.3c0-2.2-1.8-4-4-4z" fill="#424242" opacity=".2"/><path d="m121.9 34v2h-115.7v-2c0-3.3 2.7-6 6-6h103.7c3.3 0 6 2.7 6 6z" fill="url(#g)"/><path d="m25 49.8v20.2c0 2.2-1.8 4-4 4h-14.8v-28.2h14.8c2.2 0 4 1.8 4 4z" fill="#4fc3f7"/><path d="m21 45.8h-14.8v2.7h14.8v-.1c.7 0 1.3.6 1.3 1.3v20.3c0 .7-.6 1.3-1.3 1.3h-14.8v2.7h14.8c2.2 0 4-1.8 4-4v-20.2c0-2.3-1.8-4-4-4z" fill="#616161" opacity=".2"/><path d="m115.9 31c1.7 0 3 1.3 3 3v59c0 1.7-1.3 3-3 3h-103.7c-1.6 0-3-1.3-3-3v-59c0-1.7 1.4-3 3-3zm0-3h-103.7c-3.3 0-6 2.7-6 6v59c0 3.3 2.7 6 6 6h103.7c3.3 0 6-2.7 6-6v-59c0-3.3-2.7-6-6-6z" fill="#424242" opacity=".2"/></svg>