<svg height="24" width="24" xmlns="http://www.w3.org/2000/svg"><g transform="translate(0 -1028.4)"><path d="m23.015 1046.8c0 .3-.052.6-.156 1.1-.105.4-.214.8-.329 1-.219.6-.855 1.1-1.907 1.7-.98.5-1.95.8-2.909.8h-.828c-.261-.1-.558-.2-.892-.2-.333-.1-.583-.2-.75-.3-.156 0-.443-.1-.86-.3s-.672-.2-.766-.3c-1.022-.3-1.934-.8-2.736-1.3-1.3346-.8-2.7157-1.9-4.1438-3.3-1.4176-1.5-2.5381-2.9-3.3616-4.2-.5003-.8-.9329-1.7-1.2977-2.7-.0313-.1-.1251-.4-.2815-.8-.1563-.4-.2658-.7-.3283-.9-.0522-.1-.1251-.4-.2189-.7s-.1616-.6-.2033-.9c-.0313-.3-.0469-.5-.0469-.8 0-1 .2658-2 .7974-2.9.5837-1.1 1.1362-1.7 1.6574-2 .2606-.1.615-.2 1.0632-.3.4586-.1.8287-.1 1.1101-.1h.3284c.1876.1.4638.5.8287 1.2.1146.2.271.5.469.8.1981.4.3805.7.5473 1 .1667.3.3283.6.4847.9.0312 0 .1198.1.2658.4.1563.2.271.4.344.5.0729.2.1094.3.1094.5s-.1511.4-.4534.8c-.2919.3-.615.6-.9694.8-.344.3-.6672.5-.9694.8-.2919.3-.4378.6-.4378.8 0 .1.026.2.0781.3.0522.2.0939.3.1251.3.0417.1.1147.2.2189.4.1147.2.1772.3.1877.3.7922 1.4 1.699 2.7 2.7205 3.7 1.0213 1 2.2463 1.9 3.6743 2.7.021 0 .12.1.297.2s.302.2.375.2.178.1.313.1c.146.1.266.1.36.1.187 0 .427-.1.719-.4s.568-.6.829-1c.26-.3.547-.7.86-1 .312-.3.573-.4.781-.4.146 0 .292 0 .438.1.157.1.344.2.563.3.219.2.349.3.391.3.261.2.537.3.829.5.302.2.635.3 1 .5s.647.4.845.5c.729.4 1.125.7 1.188.8.031.1.047.2.047.4" fill="#e74c3c"/><path d="m1.2188 4.75c-.1453.5076-.2188 1.0294-.2188 1.5312 0 .282.0312.5414.0625.8126.0417.2608.0937.572.1875.9062.0938.3337.1666.5829.2188.75.0625.1564.1873.4575.3437.875.1564.417.25.656.2813.75.3648 1.023.7809 1.946 1.2812 2.75.8235 1.336 1.9574 2.695 3.375 4.125 1.428 1.419 2.7908 2.55 4.125 3.375.803.501 1.728.947 2.75 1.313.094.031.333.124.75.281.417.156.719.25.875.312.167.052.416.125.75.219s.614.177.875.219c.271.031.562.031.844.031.959 0 1.926-.249 2.906-.781 1.053-.585 1.687-1.135 1.906-1.657.115-.26.208-.613.313-1.062.104-.459.156-.844.156-1.125 0-.146 0-.271-.031-.344-.037-.111-.227-.263-.5-.437-.253.494-.853 1.012-1.844 1.562-.98.532-1.947.813-2.906.813-.282 0-.573-.031-.844-.063-.261-.042-.541-.093-.875-.187s-.583-.167-.75-.219c-.156-.063-.458-.187-.875-.344-.417-.156-.656-.25-.75-.281-1.022-.365-1.947-.78-2.75-1.281-1.3342-.825-2.697-1.956-4.125-3.375-1.4176-1.43-2.5515-2.821-3.375-4.157-.5003-.8032-.9164-1.6954-1.2812-2.7182-.0313-.094-.1249-.3639-.2813-.7813-.1564-.4175-.2812-.6873-.3437-.8437-.0522-.1672-.125-.4164-.2188-.75-.0224-.0796-.0119-.1433-.0312-.2188z" fill="#c0392b" transform="translate(0 1028.4)"/></g></svg>